<svg xmlns="http://www.w3.org/2000/svg" viewBox="0 0 28.27 28.26"><defs><style>.cls-1{fill:#f51355;}</style></defs><title>Asset 213</title><g id="Layer_2" data-name="Layer 2"><g id="Layer_1-2" data-name="Layer 1"><path class="cls-1" d="M14.13,12.72a1.42,1.42,0,0,1,1.41,1.42h0a1.41,1.41,0,0,1-1.41,1.41h0a1.42,1.42,0,0,1-1.42-1.41h0a1.43,1.43,0,0,1,1.42-1.42Zm5.65,0a1.42,1.42,0,0,1,1.41,1.42h0a1.41,1.41,0,0,1-1.41,1.41h0a1.42,1.42,0,0,1-1.42-1.41h0a1.43,1.43,0,0,1,1.42-1.42Zm-11.3,0a1.42,1.42,0,0,1,1.41,1.42h0a1.41,1.41,0,0,1-1.41,1.41h0a1.42,1.42,0,0,1-1.42-1.41h0a1.43,1.43,0,0,1,1.42-1.42ZM25.29,16a11.35,11.35,0,0,1-9,9.27,11.21,11.21,0,0,1-6.52-.68A4.49,4.49,0,0,0,8,24.18a4.33,4.33,0,0,0-.8.07l-4,.8.8-4a4.41,4.41,0,0,0-.29-2.56A11.28,11.28,0,0,1,12.3,3h0a11.31,11.31,0,0,1,13,13M24.12,4.14a14.12,14.12,0,0,0-23,15.47,1.56,1.56,0,0,1,.13.9L0,26.57a1.39,1.39,0,0,0,.38,1.27,1.42,1.42,0,0,0,1,.42,1.27,1.27,0,0,0,.28,0L7.74,27a1.66,1.66,0,0,1,.91.12,14.12,14.12,0,0,0,15.47-23"/></g></g></svg>