<svg xmlns="http://www.w3.org/2000/svg" viewBox="0 0 24.97 30.63"><defs><style>.cls-1{fill:#000000;stroke:#000000;}</style></defs><title>Asset 137</title><g id="Layer_2" data-name="Layer 2"><g id="Layer_1-2" data-name="Layer 1"><g id="Group_2799" data-name="Group 2799"><g id="Group_2798" data-name="Group 2798"><path id="Path_2066" data-name="Path 2066" class="cls-1" d="M22.32,5.65a12,12,0,0,0-21.06,11A9.56,9.56,0,0,0,3,19.55l8.7,10.22a1,1,0,0,0,1.46.12l.12-.12L22,19.55a9.23,9.23,0,0,0,1.74-2.86A12,12,0,0,0,22.32,5.65ZM21.77,16A7.38,7.38,0,0,1,20.4,18.2h0L12.48,27.5,4.57,18.2A7.19,7.19,0,0,1,3.2,16,9.91,9.91,0,0,1,18.12,4.34,9.95,9.95,0,0,1,21.77,16Z"/></g></g><g id="Group_2801" data-name="Group 2801"><g id="Group_2800" data-name="Group 2800"><path id="Path_2067" data-name="Path 2067" class="cls-1" d="M12.48,6.65a5.8,5.8,0,1,0,5.8,5.8A5.8,5.8,0,0,0,12.48,6.65Zm0,9.53a3.73,3.73,0,1,1,3.73-3.73h0A3.73,3.73,0,0,1,12.48,16.18Z"/></g></g></g></g></svg>