<svg xmlns="http://www.w3.org/2000/svg" viewBox="0 0 64 64"><defs><style>.cls-1{fill:#24c796;}.cls-2{fill:#fff;}</style></defs><title>Asset 215</title><g id="Layer_2" data-name="Layer 2"><g id="Layer_1-2" data-name="Layer 1"><circle id="Ellipse_98-2" data-name="Ellipse 98-2" class="cls-1" cx="32" cy="32" r="32"/><path class="cls-2" d="M47,42.5a1.5,1.5,0,0,1-1.5,1.5h0A1.5,1.5,0,0,1,44,42.5h0A4.49,4.49,0,0,0,36.71,39,10.49,10.49,0,0,1,38,44a1.5,1.5,0,0,1-3,0,7.49,7.49,0,0,0-15,0,1.5,1.5,0,0,1-3,0,10.49,10.49,0,0,1,17.9-7.42A7.49,7.49,0,0,1,47,42.5m-7.49-15a1.5,1.5,0,0,1,0,3h0A1.5,1.5,0,0,1,38,29h0a1.5,1.5,0,0,1,1.5-1.5m0,6A4.5,4.5,0,1,0,35,29a4.51,4.51,0,0,0,4.5,4.5m-12-12a3,3,0,1,1-3,3,3,3,0,0,1,3-3m0,9a6,6,0,1,0-6-6,6,6,0,0,0,6,6"/></g></g></svg>