<svg xmlns="http://www.w3.org/2000/svg" viewBox="0 0 64 64"><defs><style>.cls-1{fill:#ff527c;}.cls-2{fill:#fff;}</style></defs><title>Asset 199</title><g id="Layer_2" data-name="Layer 2"><g id="Layer_1-2" data-name="Layer 1"><circle id="Ellipse_97-4" data-name="Ellipse 97-4" class="cls-1" cx="32" cy="32" r="32"/><path class="cls-2" d="M40.77,45.87A4.26,4.26,0,0,0,45,41.61,1.07,1.07,0,0,0,44,40.54H40a12.93,12.93,0,0,0,1.59-1.94h1.33a6,6,0,0,0,6-6V28.56a1.06,1.06,0,0,0-1.06-1.07H43.66v-.7a1.06,1.06,0,0,0-1.07-1.07H19.84a1.07,1.07,0,0,0-1.06,1.07v4.92a12.3,12.3,0,0,0,3.67,8.83H19.84a1.06,1.06,0,0,0-1.06,1.07A4.25,4.25,0,0,0,23,45.87ZM42.91,36l.36-1.17a12.42,12.42,0,0,0,.39-3.1V29.62h3.1v3a3.85,3.85,0,0,1-3.85,3.84h-.19C42.78,36.3,42.84,36.14,42.91,36Zm-22-4.27V27.85H41.52v3.86a10.37,10.37,0,0,1-5,8.83H25.9A10.38,10.38,0,0,1,20.91,31.71Zm.29,11H42.6a2.12,2.12,0,0,1-1.83,1H23A2.13,2.13,0,0,1,21.2,42.68Z"/><path class="cls-2" d="M30.14,22.59a1.07,1.07,0,0,0,.18,1.5,1.06,1.06,0,0,0,1.48-.16l.31-.39a3.57,3.57,0,0,0,0-4.47l-.3-.36a1,1,0,0,1,0-1.25,1.07,1.07,0,0,0-1.68-1.32,3.1,3.1,0,0,0,0,3.9l.3.37a1.44,1.44,0,0,1,0,1.8Z"/><path class="cls-2" d="M26.27,22.59a1.07,1.07,0,0,0,.16,1.5,1.08,1.08,0,0,0,.67.24,1.09,1.09,0,0,0,.84-.4l.3-.39a3.57,3.57,0,0,0,0-4.47l-.3-.36a1,1,0,0,1,0-1.25,1.07,1.07,0,0,0,.2-.79,1.05,1.05,0,0,0-.42-.7,1.07,1.07,0,0,0-1.46.17,3.1,3.1,0,0,0,0,3.9l.3.37a1.44,1.44,0,0,1,0,1.8Z"/><path class="cls-2" d="M34,22.59a1.07,1.07,0,0,0,.18,1.5,1.06,1.06,0,0,0,1.48-.16l.31-.39a3.57,3.57,0,0,0,0-4.47l-.3-.36a1,1,0,0,1,0-1.25,1.07,1.07,0,0,0,.2-.79,1,1,0,0,0-.42-.7,1.08,1.08,0,0,0-1.46.17A3.1,3.1,0,0,0,34,20l.3.37a1.42,1.42,0,0,1,0,1.8Z"/></g></g></svg>