<svg xmlns="http://www.w3.org/2000/svg" viewBox="0 0 64 64"><defs><style>.cls-1{fill:#3a3838;}.cls-2{fill:#fff;}</style></defs><title>Asset 198</title><g id="Layer_2" data-name="Layer 2"><g id="Layer_1-2" data-name="Layer 1"><circle id="Ellipse_97-4" data-name="Ellipse 97-4" class="cls-1" cx="32" cy="32" r="32"/><path class="cls-2" d="M43,21h0a14.09,14.09,0,0,0-12.25-4A14.12,14.12,0,0,0,20,36.48a1.64,1.64,0,0,1,.13.9l-1.22,6.06a1.41,1.41,0,0,0,1.39,1.69,1.33,1.33,0,0,0,.28,0l6.05-1.21a1.59,1.59,0,0,1,.91.13A14.13,14.13,0,0,0,43,21Zm1.16,11.83a11.28,11.28,0,0,1-15.53,8.58,4.49,4.49,0,0,0-1.77-.37,3.56,3.56,0,0,0-.8.08l-4,.79.8-4a4.34,4.34,0,0,0-.3-2.56,11.3,11.3,0,1,1,21.57-2.55Z"/><path class="cls-2" d="M38.64,29.59h0A1.42,1.42,0,0,0,37.23,31h0a1.41,1.41,0,0,0,1.41,1.41h0A1.42,1.42,0,0,0,40.06,31h0A1.43,1.43,0,0,0,38.64,29.59Z"/><path class="cls-2" d="M27.34,29.59h0A1.42,1.42,0,0,0,25.93,31h0a1.41,1.41,0,0,0,1.41,1.41h0A1.42,1.42,0,0,0,28.76,31h0A1.43,1.43,0,0,0,27.34,29.59Z"/><path class="cls-2" d="M33,29.59h0A1.42,1.42,0,0,0,31.58,31h0A1.41,1.41,0,0,0,33,32.42h0A1.42,1.42,0,0,0,34.41,31h0A1.43,1.43,0,0,0,33,29.59Z"/></g></g></svg>