<svg xmlns="http://www.w3.org/2000/svg" viewBox="0 0 64 64"><defs><style>.cls-1{fill:#0aaf50;}.cls-2,.cls-3{fill:none;stroke:#fff;stroke-width:2px;}.cls-3{stroke-linecap:round;}</style></defs><title>Asset 217</title><g id="Layer_2" data-name="Layer 2"><g id="Layer_1-2" data-name="Layer 1"><circle id="Ellipse_97-4" data-name="Ellipse 97-4" class="cls-1" cx="32" cy="32" r="32"/><path class="cls-2" d="M46.37,28.18h-.53V25a4.71,4.71,0,0,0-4.7-4.7H24.86A4.71,4.71,0,0,0,20.17,25v3.19h-.54A1.84,1.84,0,0,0,17.79,30v5.49a3.26,3.26,0,0,0,3.26,3.26h.87V41.4a.41.41,0,0,0,.41.41h5.1a.41.41,0,0,0,.41-.41V38.78H38.16V41.4a.42.42,0,0,0,.41.41h5.1a.41.41,0,0,0,.41-.41V38.78H45a3.28,3.28,0,0,0,3.26-3.27V30a1.84,1.84,0,0,0-1.84-1.84Z"/><path class="cls-3" d="M20.17,28.18h1.36a1,1,0,0,1,1,1h0v3.58a.42.42,0,0,0,.42.42H43a.42.42,0,0,0,.41-.42V29.18a1,1,0,0,1,1-1h1.9"/></g></g></svg>