<svg xmlns="http://www.w3.org/2000/svg" viewBox="0 0 64 64"><defs><style>.cls-1{fill:#ffc001;}.cls-2{fill:#fff;}</style></defs><title>Asset 205</title><g id="Layer_2" data-name="Layer 2"><g id="Layer_1-2" data-name="Layer 1"><circle id="Ellipse_99-2" data-name="Ellipse 99-2" class="cls-1" cx="32" cy="32" r="32"/><path class="cls-2" d="M43.21,33.18a12,12,0,1,0-22.45,0A9.23,9.23,0,0,0,22.5,36l8.69,10.23a1,1,0,0,0,1.46.12.68.68,0,0,0,.12-.12l8.7-10.22A9.39,9.39,0,0,0,43.21,33.18Zm-3.3,1.52h0L32,44l-7.92-9.3a7.31,7.31,0,0,1-1.37-2.25,9.91,9.91,0,1,1,18.57,0h0A7.35,7.35,0,0,1,39.91,34.7Z"/><path class="cls-2" d="M32,23.15a5.8,5.8,0,1,0,5.8,5.8A5.79,5.79,0,0,0,32,23.15Zm0,9.53A3.73,3.73,0,1,1,35.72,29,3.73,3.73,0,0,1,32,32.68Z"/></g></g></svg>