<svg xmlns="http://www.w3.org/2000/svg" viewBox="0 0 64 64"><defs><style>.cls-1{fill:#00bcd4;}.cls-2{fill:#fff;}</style></defs><title>Asset 200</title><g id="Layer_2" data-name="Layer 2"><g id="Layer_1-2" data-name="Layer 1"><circle id="Ellipse_97-4" data-name="Ellipse 97-4" class="cls-1" cx="32" cy="32" r="32"/><path class="cls-2" d="M29,47.31a7.62,7.62,0,0,0,5.95,0A17.39,17.39,0,0,0,45.65,31.56V22.4a4.32,4.32,0,0,0-4.32-4.32H22.67a4.32,4.32,0,0,0-4.32,4.32h0v9.19A17.48,17.48,0,0,0,29,47.31ZM20.59,22.4a2.08,2.08,0,0,1,2.08-2.08H41.33a2.08,2.08,0,0,1,2.08,2.08v9.15a15.11,15.11,0,0,1-9.31,13.7,5.33,5.33,0,0,1-4.2,0,15.22,15.22,0,0,1-9.3-13.69Z"/><path class="cls-2" d="M37.09,33.06H26.9a1.13,1.13,0,0,0-1.12,1.12,6.22,6.22,0,0,0,10.62,4.4,6.16,6.16,0,0,0,1.81-4.4A1.12,1.12,0,0,0,37.09,33.06ZM34.81,37A3.92,3.92,0,0,1,32,38.16a4,4,0,0,1-3.81-2.86h7.63A3.91,3.91,0,0,1,34.81,37Z"/><path class="cls-2" d="M26.91,28.48a1,1,0,0,1,1.64,0,1.14,1.14,0,0,0,1,.57,1.06,1.06,0,0,0,.56-.16,1.13,1.13,0,0,0,.41-1.53,3.2,3.2,0,0,0-5.53,0,1.12,1.12,0,0,0,1.94,1.12Z"/><path class="cls-2" d="M33.92,28.89a1.11,1.11,0,0,0,1.53-.41,1,1,0,0,1,1.65,0,1.13,1.13,0,0,0,1,.57,1.06,1.06,0,0,0,.56-.16A1.12,1.12,0,0,0,39,27.36a3.2,3.2,0,0,0-5.53,0A1.11,1.11,0,0,0,33.92,28.89Z"/></g></g></svg>