<svg xmlns="http://www.w3.org/2000/svg" viewBox="0 0 64 64"><defs><style>.cls-1{fill:#641956;}.cls-2{fill:#fff;}</style></defs><title>Asset 202</title><g id="Layer_2" data-name="Layer 2"><g id="Layer_1-2" data-name="Layer 1"><circle id="Ellipse_97-5" data-name="Ellipse 97-5" class="cls-1" cx="32" cy="32" r="32"/><path class="cls-2" d="M44.08,29.77a1,1,0,0,0-2,0,9.8,9.8,0,1,1-19.59.56v-.56a1,1,0,0,0-1-.95,1,1,0,0,0-.95.95A11.78,11.78,0,0,0,31.32,41.5V45h-4.4a1,1,0,0,0-1,1,1,1,0,0,0,1,1H37.7a1,1,0,1,0,.06-2H33.3V41.5A11.78,11.78,0,0,0,44.08,29.77Z"/><path class="cls-2" d="M38.69,29.77V20.38a6.38,6.38,0,1,0-12.76,0v9.39a6.38,6.38,0,1,0,12.76,0Zm-10.78,0V20.38a4.4,4.4,0,1,1,8.8,0v9.39a4.4,4.4,0,1,1-8.8,0Z"/></g></g></svg>