<svg xmlns="http://www.w3.org/2000/svg" viewBox="0 0 64 64"><defs><style>.cls-1{fill:#43546a;}.cls-2{fill:#fff;}</style></defs><title>Asset 204</title><g id="Layer_2" data-name="Layer 2"><g id="Layer_1-2" data-name="Layer 1"><circle id="Ellipse_98-2" data-name="Ellipse 98-2" class="cls-1" cx="32" cy="32" r="32"/><path class="cls-2" d="M18.28,36.71h1.47a4.1,4.1,0,0,0-1,2.71,4.15,4.15,0,0,0,8.29,0,4.1,4.1,0,0,0-1-2.71H38.85a1.34,1.34,0,0,0,.35,0,4.14,4.14,0,1,0,7.22,2.75,4.1,4.1,0,0,0-1-2.71h1.47a1.85,1.85,0,0,0,1.85-1.86V24.57a1.86,1.86,0,0,0-1.85-1.86H41.13a1.93,1.93,0,0,0-.42.06v-.49a1.86,1.86,0,0,0-1.86-1.85H18.28a1.85,1.85,0,0,0-1.85,1.85V34.85A1.85,1.85,0,0,0,18.28,36.71Zm4.58,4.85A2.14,2.14,0,1,1,25,39.42,2.14,2.14,0,0,1,22.86,41.56Zm19.42,0a2.14,2.14,0,1,1,2.14-2.14A2.15,2.15,0,0,1,42.28,41.56Zm-1-16.85H46.7v10H41.28ZM18.43,22.43H38.71V34.71H18.43Z"/></g></g></svg>